<svg width="800" height="400" viewBox="0 0 800 400" xmlns="http://www.w3.org/2000/svg"><defs><pattern id="satori_pattern_id_0" x="0" y="0" width="1" height="1" patternUnits="objectBoundingBox"><linearGradient id="satori_biid_0" x1="0" y1="0" x2="0" y2="1" spreadMethod="pad"><stop offset="0%" stop-color="#dbf4ff"/><stop offset="100%" stop-color="#fff1f1"/></linearGradient><rect x="0" y="0" width="800" height="400" fill="url(#satori_biid_0)"/></pattern></defs><mask id="satori_om-id"><rect x="0" y="0" width="800" height="400" fill="#fff"/></mask><rect x="0" y="0" width="800" height="400" fill="url(#satori_pattern_id_0)"/><clipPath id="satori_bct-id-0"><path d="M339.6 149.1L330.6 149.1L318.1 105.5L328.2 105.5L335.4 135.8L335.8 135.8L343.8 105.5L352.4 105.5L360.3 135.9L360.7 135.9L367.9 105.5L378.0 105.5L365.5 149.1L356.5 149.1L348.2 120.6L347.9 120.6L339.6 149.1ZM392.2 149.8L392.2 149.8Q387.1 149.8 383.5 147.7Q379.8 145.7 377.9 141.9Q375.9 138.1 375.9 132.9L375.9 132.9Q375.9 127.9 377.9 124.0Q379.8 120.2 383.4 118.1Q387.0 116.0 391.8 116.0L391.8 116.0Q395.0 116.0 397.8 117.0Q400.6 118.0 402.7 120.1Q404.8 122.2 406.0 125.3Q407.2 128.4 407.2 132.6L407.2 132.6L407.2 135.1L379.5 135.1L379.5 129.5L398.6 129.5Q398.6 127.5 397.8 126.0Q396.9 124.5 395.4 123.6Q393.9 122.7 391.9 122.7L391.9 122.7Q389.9 122.7 388.3 123.7Q386.7 124.6 385.8 126.2Q384.9 127.8 384.9 129.8L384.9 129.8L384.9 135.1Q384.9 137.5 385.8 139.3Q386.7 141.1 388.4 142.0Q390.0 143.0 392.3 143.0L392.3 143.0Q393.8 143.0 395.1 142.6Q396.3 142.1 397.2 141.3Q398.1 140.4 398.6 139.2L398.6 139.2L407.0 139.8Q406.3 142.8 404.4 145.0Q402.4 147.3 399.3 148.5Q396.2 149.8 392.2 149.8ZM420.2 149.1L411.3 149.1L411.3 105.5L420.3 105.5L420.3 121.9L420.6 121.9Q421.2 120.6 422.4 119.2Q423.5 117.8 425.3 116.9Q427.2 116.0 429.9 116.0L429.9 116.0Q433.5 116.0 436.5 117.8Q439.6 119.7 441.4 123.4Q443.2 127.2 443.2 132.8L443.2 132.8Q443.2 138.3 441.4 142.0Q439.7 145.8 436.7 147.7Q433.6 149.7 429.9 149.7L429.9 149.7Q427.3 149.7 425.4 148.8Q423.6 147.9 422.4 146.6Q421.2 145.2 420.6 143.9L420.6 143.9L420.2 143.9L420.2 149.1ZM420.2 132.8L420.2 132.8Q420.2 135.7 421.0 137.9Q421.8 140.0 423.3 141.2Q424.8 142.4 427.0 142.4L427.0 142.4Q429.3 142.4 430.8 141.2Q432.3 140.0 433.1 137.8Q433.9 135.6 433.9 132.8L433.9 132.8Q433.9 129.9 433.1 127.8Q432.3 125.6 430.8 124.4Q429.3 123.2 427.0 123.2L427.0 123.2Q424.8 123.2 423.3 124.4Q421.8 125.5 421.0 127.7Q420.2 129.8 420.2 132.8ZM456.3 161.4L447.2 161.4L447.2 116.4L456.2 116.4L456.2 121.9L456.6 121.9Q457.2 120.6 458.3 119.2Q459.4 117.8 461.3 116.9Q463.1 116.0 465.9 116.0L465.9 116.0Q469.5 116.0 472.5 117.8Q475.5 119.7 477.3 123.4Q479.1 127.2 479.1 132.8L479.1 132.8Q479.1 138.3 477.4 142.0Q475.6 145.8 472.6 147.7Q469.6 149.7 465.9 149.7L465.9 149.7Q463.2 149.7 461.4 148.8Q459.5 147.9 458.4 146.6Q457.2 145.2 456.6 143.9L456.6 143.9L456.3 143.9L456.3 161.4ZM456.1 132.8L456.1 132.8Q456.1 135.7 456.9 137.9Q457.7 140.0 459.3 141.2Q460.8 142.4 463.0 142.4L463.0 142.4Q465.2 142.4 466.7 141.2Q468.3 140.0 469.1 137.8Q469.9 135.6 469.9 132.8L469.9 132.8Q469.9 129.9 469.1 127.8Q468.3 125.6 466.8 124.4Q465.2 123.2 463.0 123.2L463.0 123.2Q460.8 123.2 459.2 124.4Q457.7 125.5 456.9 127.7Q456.1 129.8 456.1 132.8Z "/></clipPath><defs><pattern id="satori_pattern_id-0_0" x="0" y="0" width="1" height="1" patternUnits="objectBoundingBox"><linearGradient id="satori_biid-0_0" x1="0" y1="0" x2="1" y2="0" spreadMethod="pad"><stop offset="0%" stop-color="rgb(0, 124, 240)"/><stop offset="100%" stop-color="rgb(0, 223, 216)"/></linearGradient><rect x="0" y="0" width="167" height="73" fill="url(#satori_biid-0_0)"/></pattern></defs><mask id="satori_om-id-0"><rect x="317" y="91" width="167" height="73" fill="#fff"/></mask><rect x="317" y="91" width="167" height="73" fill="url(#satori_pattern_id-0_0)" clip-path="url(#satori_bct-id-0)"/><clipPath id="satori_bct-id-1"><path d="M318.3 222.1L288.8 222.1L288.8 178.5L318.2 178.5L318.2 186.1L298.0 186.1L298.0 196.5L316.7 196.5L316.7 204.1L298.0 204.1L298.0 214.5L318.3 214.5L318.3 222.1ZM332.5 203.2L332.5 203.2L332.5 222.1L323.4 222.1L323.4 189.4L332.0 189.4L332.0 195.2L332.4 195.2Q333.5 192.3 336.1 190.6Q338.6 189.0 342.3 189.0L342.3 189.0Q345.7 189.0 348.2 190.5Q350.7 192.0 352.1 194.7Q353.5 197.5 353.5 201.3L353.5 201.3L353.5 222.1L344.5 222.1L344.5 202.9Q344.5 199.9 342.9 198.2Q341.4 196.5 338.7 196.5L338.7 196.5Q336.8 196.5 335.4 197.3Q334.0 198.1 333.3 199.6Q332.5 201.1 332.5 203.2ZM373.5 222.8L373.5 222.8Q368.4 222.8 364.8 220.6Q361.2 218.5 359.3 214.7Q357.4 210.9 357.4 205.9L357.4 205.9Q357.4 200.9 359.3 197.1Q361.3 193.3 364.9 191.1Q368.5 189.0 373.4 189.0L373.4 189.0Q377.7 189.0 380.9 190.5Q384.1 192.1 386.0 194.9Q387.9 197.7 388.1 201.5L388.1 201.5L379.5 201.5Q379.2 199.0 377.6 197.5Q376.1 196.0 373.6 196.0L373.6 196.0Q371.5 196.0 369.9 197.2Q368.3 198.3 367.5 200.5Q366.6 202.7 366.6 205.8L366.6 205.8Q366.6 208.9 367.5 211.1Q368.3 213.3 369.9 214.4Q371.5 215.6 373.6 215.6L373.6 215.6Q375.1 215.6 376.4 214.9Q377.6 214.3 378.4 213.1Q379.3 211.9 379.5 210.1L379.5 210.1L388.1 210.1Q387.9 213.9 386.1 216.7Q384.2 219.6 381.0 221.2Q377.8 222.8 373.5 222.8ZM406.7 222.8L406.7 222.8Q401.7 222.8 398.1 220.6Q394.5 218.5 392.6 214.7Q390.6 210.9 390.6 205.9L390.6 205.9Q390.6 200.8 392.6 197.0Q394.5 193.2 398.1 191.1Q401.7 189.0 406.7 189.0L406.7 189.0Q411.7 189.0 415.3 191.1Q418.9 193.2 420.9 197.0Q422.8 200.8 422.8 205.9L422.8 205.9Q422.8 210.9 420.9 214.7Q418.9 218.5 415.3 220.6Q411.7 222.8 406.7 222.8ZM406.8 215.7L406.8 215.7Q409.0 215.7 410.5 214.4Q412.0 213.2 412.8 210.9Q413.6 208.7 413.6 205.8L413.6 205.8Q413.6 203.0 412.8 200.7Q412.0 198.5 410.5 197.2Q409.0 195.9 406.8 195.9L406.8 195.9Q404.5 195.9 402.9 197.2Q401.4 198.5 400.6 200.7Q399.8 203.0 399.8 205.8L399.8 205.8Q399.8 208.7 400.6 210.9Q401.4 213.2 402.9 214.4Q404.5 215.7 406.8 215.7ZM438.8 222.7L438.8 222.7Q435.1 222.7 432.1 220.7Q429.0 218.8 427.3 215.0Q425.5 211.3 425.5 205.8L425.5 205.8Q425.5 200.2 427.3 196.4Q429.2 192.7 432.2 190.8Q435.2 189.0 438.8 189.0L438.8 189.0Q441.5 189.0 443.4 189.9Q445.2 190.8 446.4 192.2Q447.5 193.6 448.1 194.9L448.1 194.9L448.4 194.9L448.4 178.5L457.4 178.5L457.4 222.1L448.5 222.1L448.5 216.9L448.1 216.9Q447.5 218.2 446.3 219.6Q445.1 220.9 443.3 221.8Q441.4 222.7 438.8 222.7ZM441.7 215.4L441.7 215.4Q443.9 215.4 445.4 214.2Q446.9 213.0 447.7 210.9Q448.6 208.7 448.6 205.8L448.6 205.8Q448.6 202.8 447.8 200.7Q446.9 198.5 445.4 197.4Q443.9 196.2 441.7 196.2L441.7 196.2Q439.4 196.2 437.9 197.4Q436.4 198.6 435.6 200.8Q434.8 202.9 434.8 205.8L434.8 205.8Q434.8 208.6 435.6 210.8Q436.4 213.0 437.9 214.2Q439.4 215.4 441.7 215.4ZM477.8 222.8L477.8 222.8Q472.7 222.8 469.1 220.7Q465.5 218.7 463.5 214.9Q461.5 211.1 461.5 205.9L461.5 205.9Q461.5 200.9 463.5 197.0Q465.5 193.2 469.0 191.1Q472.6 189.0 477.4 189.0L477.4 189.0Q480.7 189.0 483.5 190.0Q486.3 191.0 488.4 193.1Q490.5 195.2 491.6 198.3Q492.8 201.4 492.8 205.6L492.8 205.6L492.8 208.1L465.2 208.1L465.2 202.5L484.3 202.5Q484.3 200.5 483.4 199.0Q482.5 197.5 481.0 196.6Q479.5 195.7 477.6 195.7L477.6 195.7Q475.5 195.7 473.9 196.7Q472.3 197.6 471.4 199.2Q470.5 200.8 470.5 202.8L470.5 202.8L470.5 208.1Q470.5 210.5 471.4 212.3Q472.3 214.1 474.0 215.0Q475.6 216.0 477.9 216.0L477.9 216.0Q479.4 216.0 480.7 215.6Q482.0 215.1 482.8 214.3Q483.7 213.4 484.2 212.2L484.2 212.2L492.6 212.8Q492.0 215.8 490.0 218.0Q488.0 220.3 484.9 221.5Q481.8 222.8 477.8 222.8ZM505.8 222.1L496.7 222.1L496.7 189.4L505.5 189.4L505.5 195.1L505.9 195.1Q506.8 192.1 508.9 190.5Q511.0 188.9 513.7 188.9L513.7 188.9Q514.4 188.9 515.2 189.0Q516.0 189.1 516.6 189.2L516.6 189.2L516.6 197.3Q515.9 197.1 514.8 197.0Q513.7 196.8 512.7 196.8L512.7 196.8Q510.7 196.8 509.2 197.7Q507.6 198.5 506.7 200.1Q505.8 201.6 505.8 203.6L505.8 203.6L505.8 222.1Z "/></clipPath><defs><pattern id="satori_pattern_id-1_0" x="0" y="0" width="1" height="1" patternUnits="objectBoundingBox"><linearGradient id="satori_biid-1_0" x1="0" y1="0" x2="1" y2="0" spreadMethod="pad"><stop offset="0%" stop-color="rgb(121, 40, 202)"/><stop offset="100%" stop-color="rgb(255, 0, 128)"/></linearGradient><rect x="0" y="0" width="231" height="72" fill="url(#satori_biid-1_0)"/></pattern></defs><mask id="satori_om-id-1"><rect x="285" y="164" width="231" height="72" fill="#fff"/></mask><rect x="285" y="164" width="231" height="72" fill="url(#satori_pattern_id-1_0)" clip-path="url(#satori_bct-id-1)"/><clipPath id="satori_bct-id-2"><path d="M252.7 294.1L243.8 294.1L243.8 250.5L252.9 250.5L252.9 266.9L253.1 266.9Q253.7 265.6 254.9 264.2Q256.0 262.8 257.9 261.9Q259.7 261.0 262.5 261.0L262.5 261.0Q266.0 261.0 269.1 262.8Q272.1 264.7 273.9 268.4Q275.7 272.2 275.7 277.8L275.7 277.8Q275.7 283.3 274.0 287.0Q272.2 290.8 269.2 292.7Q266.2 294.7 262.4 294.7L262.4 294.7Q259.8 294.7 258.0 293.8Q256.1 292.9 254.9 291.6Q253.8 290.2 253.1 288.9L253.1 288.9L252.7 288.9L252.7 294.1ZM252.7 277.8L252.7 277.8Q252.7 280.7 253.5 282.9Q254.3 285.0 255.8 286.2Q257.4 287.4 259.6 287.4L259.6 287.4Q261.8 287.4 263.3 286.2Q264.8 285.0 265.6 282.8Q266.4 280.6 266.4 277.8L266.4 277.8Q266.4 274.9 265.7 272.8Q264.9 270.6 263.3 269.4Q261.8 268.2 259.6 268.2L259.6 268.2Q257.3 268.2 255.8 269.4Q254.3 270.5 253.5 272.7Q252.7 274.8 252.7 277.8ZM284.3 306.4L284.3 306.4Q282.5 306.4 281.0 306.1Q279.5 305.9 278.5 305.5L278.5 305.5L280.6 298.7Q282.2 299.2 283.5 299.2Q284.8 299.3 285.7 298.6Q286.7 298.0 287.3 296.4L287.3 296.4L287.8 295.1L276.1 261.4L285.6 261.4L292.4 285.4L292.7 285.4L299.6 261.4L309.2 261.4L296.4 297.7Q295.5 300.3 294.0 302.3Q292.4 304.2 290.0 305.3Q287.6 306.4 284.3 306.4Z M357.5 263.0L348.7 263.0Q348.4 260.5 346.5 259.0Q344.5 257.6 341.2 257.6L341.2 257.6Q338.9 257.6 337.4 258.2Q335.8 258.9 335.0 260.0Q334.2 261.1 334.2 262.5L334.2 262.5Q334.1 263.7 334.7 264.5Q335.2 265.4 336.2 266.0Q337.1 266.7 338.4 267.1Q339.7 267.6 341.1 267.9L341.1 267.9L345.0 268.8Q347.9 269.5 350.3 270.5Q352.6 271.6 354.4 273.2Q356.1 274.7 357.1 276.8Q358.1 278.9 358.1 281.7L358.1 281.7Q358.1 285.7 356.1 288.6Q354.0 291.5 350.3 293.1Q346.5 294.7 341.2 294.7L341.2 294.7Q335.9 294.7 332.0 293.1Q328.0 291.5 325.9 288.3Q323.7 285.1 323.6 280.4L323.6 280.4L332.5 280.4Q332.7 282.6 333.8 284.1Q334.9 285.5 336.8 286.3Q338.7 287.0 341.0 287.0L341.0 287.0Q343.4 287.0 345.1 286.3Q346.9 285.6 347.8 284.4Q348.8 283.2 348.8 281.6L348.8 281.6Q348.8 280.2 347.9 279.2Q347.1 278.2 345.4 277.5Q343.8 276.8 341.4 276.2L341.4 276.2L336.6 275.0Q331.1 273.6 327.9 270.8Q324.7 267.9 324.7 263.1L324.7 263.1Q324.7 259.1 326.8 256.2Q329.0 253.2 332.7 251.6Q336.5 249.9 341.3 249.9L341.3 249.9Q346.1 249.9 349.7 251.6Q353.4 253.2 355.4 256.2Q357.4 259.1 357.5 263.0L357.5 263.0ZM359.8 261.4L379.5 261.4L379.5 268.2L359.8 268.2L359.8 261.4ZM364.3 285.3L364.3 253.6L373.3 253.6L373.3 284.1Q373.3 285.3 373.7 286.0Q374.1 286.7 374.8 287.0Q375.5 287.3 376.4 287.3L376.4 287.3Q377.1 287.3 377.7 287.1Q378.3 287.0 378.7 287.0L378.7 287.0L380.1 293.7Q379.4 293.9 378.2 294.2Q377.0 294.5 375.2 294.6L375.2 294.6Q371.9 294.7 369.4 293.7Q367.0 292.7 365.6 290.6Q364.3 288.5 364.3 285.3L364.3 285.3ZM398.0 294.8L398.0 294.8Q392.9 294.8 389.3 292.7Q385.7 290.7 383.7 286.9Q381.7 283.1 381.7 277.9L381.7 277.9Q381.7 272.9 383.7 269.0Q385.7 265.2 389.2 263.1Q392.8 261.0 397.6 261.0L397.6 261.0Q400.9 261.0 403.7 262.0Q406.5 263.0 408.6 265.1Q410.7 267.2 411.8 270.3Q413.0 273.4 413.0 277.6L413.0 277.6L413.0 280.1L385.4 280.1L385.4 274.5L404.5 274.5Q404.5 272.5 403.6 271.0Q402.8 269.5 401.3 268.6Q399.8 267.7 397.8 267.7L397.8 267.7Q395.7 267.7 394.1 268.7Q392.5 269.6 391.6 271.2Q390.7 272.8 390.7 274.8L390.7 274.8L390.7 280.1Q390.7 282.5 391.6 284.3Q392.5 286.1 394.2 287.0Q395.9 288.0 398.1 288.0L398.1 288.0Q399.6 288.0 400.9 287.6Q402.2 287.1 403.1 286.3Q403.9 285.4 404.4 284.2L404.4 284.2L412.8 284.8Q412.2 287.8 410.2 290.0Q408.2 292.3 405.1 293.5Q402.0 294.8 398.0 294.8ZM426.3 294.7L426.3 294.7Q423.1 294.7 420.7 293.6Q418.2 292.5 416.8 290.4Q415.4 288.2 415.4 285.0L415.4 285.0Q415.4 282.3 416.4 280.4Q417.4 278.5 419.1 277.4Q420.8 276.3 423.1 275.7Q425.3 275.1 427.7 274.9L427.7 274.9Q430.5 274.6 432.3 274.3Q434.0 274.1 434.8 273.5Q435.6 273.0 435.6 272.0L435.6 272.0L435.6 271.8Q435.6 269.8 434.3 268.7Q433.1 267.6 430.8 267.6L430.8 267.6Q428.3 267.6 426.9 268.7Q425.4 269.8 424.9 271.4L424.9 271.4L416.5 270.7Q417.2 267.7 419.1 265.5Q420.9 263.3 423.9 262.2Q426.9 261.0 430.8 261.0L430.8 261.0Q433.5 261.0 436.0 261.6Q438.5 262.3 440.5 263.6Q442.4 264.9 443.6 267.0Q444.7 269.1 444.7 272.1L444.7 272.1L444.7 294.1L436.1 294.1L436.1 289.6L435.8 289.6Q435.0 291.1 433.7 292.3Q432.4 293.4 430.5 294.1Q428.7 294.7 426.3 294.7ZM428.9 288.5L428.9 288.5Q430.9 288.5 432.4 287.7Q433.9 286.9 434.8 285.5Q435.7 284.2 435.7 282.4L435.7 282.4L435.7 279.0Q435.3 279.2 434.5 279.5Q433.8 279.7 432.9 279.9Q431.9 280.0 431.0 280.2Q430.1 280.3 429.4 280.4L429.4 280.4Q427.8 280.7 426.6 281.2Q425.4 281.7 424.7 282.5Q424.1 283.4 424.1 284.7L424.1 284.7Q424.1 286.5 425.4 287.5Q426.8 288.5 428.9 288.5ZM461.8 294.7L461.8 294.7Q458.1 294.7 455.1 292.7Q452.0 290.8 450.3 287.0Q448.5 283.3 448.5 277.8L448.5 277.8Q448.5 272.2 450.3 268.4Q452.2 264.7 455.2 262.8Q458.2 261.0 461.8 261.0L461.8 261.0Q464.5 261.0 466.4 261.9Q468.2 262.8 469.4 264.2Q470.5 265.6 471.1 266.9L471.1 266.9L471.4 266.9L471.4 250.5L480.4 250.5L480.4 294.1L471.5 294.1L471.5 288.9L471.1 288.9Q470.5 290.2 469.3 291.6Q468.1 292.9 466.3 293.8Q464.4 294.7 461.8 294.7ZM464.7 287.4L464.7 287.4Q466.9 287.4 468.4 286.2Q469.9 285.0 470.7 282.9Q471.6 280.7 471.6 277.8L471.6 277.8Q471.6 274.8 470.8 272.7Q469.9 270.5 468.4 269.4Q466.9 268.2 464.7 268.2L464.7 268.2Q462.4 268.2 460.9 269.4Q459.4 270.6 458.6 272.8Q457.8 274.9 457.8 277.8L457.8 277.8Q457.8 280.6 458.6 282.8Q459.4 285.0 460.9 286.2Q462.4 287.4 464.7 287.4ZM502.9 295.1L502.9 295.1Q497.4 295.1 493.4 292.4Q489.5 289.7 487.4 284.6Q485.2 279.5 485.3 272.3L485.3 272.3Q485.3 265.2 487.4 260.2Q489.5 255.2 493.5 252.5Q497.4 249.9 502.9 249.9L502.9 249.9Q508.4 249.9 512.3 252.5Q516.3 255.2 518.4 260.2Q520.5 265.2 520.5 272.3L520.5 272.3Q520.5 279.5 518.4 284.6Q516.3 289.7 512.3 292.4Q508.4 295.1 502.9 295.1ZM502.9 287.4L502.9 287.4Q506.6 287.4 508.9 283.7Q511.1 279.9 511.1 272.3L511.1 272.3Q511.1 267.4 510.1 264.1Q509.1 260.8 507.2 259.1Q505.4 257.5 502.9 257.5L502.9 257.5Q499.2 257.5 496.9 261.2Q494.7 264.9 494.7 272.3L494.7 272.3Q494.7 277.4 495.7 280.7Q496.7 284.1 498.5 285.8Q500.4 287.4 502.9 287.4ZM541.3 294.7L541.3 294.7Q536.4 294.7 532.6 293.1Q528.8 291.5 526.6 288.7Q524.4 285.9 524.4 282.4L524.4 282.4Q524.4 279.7 525.7 277.4Q526.9 275.1 529.1 273.6Q531.2 272.0 533.9 271.6L533.9 271.6L533.9 271.3Q530.4 270.6 528.2 267.9Q526.0 265.2 526.0 261.6L526.0 261.6Q526.0 258.2 528.0 255.6Q530.0 252.9 533.5 251.4Q536.9 249.9 541.3 249.9L541.3 249.9Q545.8 249.9 549.2 251.4Q552.7 253.0 554.7 255.6Q556.6 258.3 556.7 261.6L556.7 261.6Q556.6 265.2 554.5 267.9Q552.3 270.6 548.8 271.3L548.8 271.3L548.8 271.6Q551.4 272.0 553.6 273.6Q555.7 275.1 557.0 277.4Q558.3 279.7 558.3 282.4L558.3 282.4Q558.3 285.9 556.1 288.7Q553.9 291.5 550.1 293.1Q546.3 294.7 541.3 294.7ZM541.3 287.9L541.3 287.9Q543.5 287.9 545.2 287.1Q546.8 286.3 547.7 284.9Q548.7 283.5 548.7 281.7L548.7 281.7Q548.7 279.8 547.7 278.3Q546.8 276.8 545.1 276.0Q543.5 275.2 541.3 275.2L541.3 275.2Q539.2 275.2 537.6 276.0Q535.9 276.8 535.0 278.3Q534.0 279.8 534.0 281.7L534.0 281.7Q534.0 283.5 534.9 284.9Q535.8 286.3 537.5 287.1Q539.2 287.9 541.3 287.9ZM541.3 268.5L541.3 268.5Q543.2 268.5 544.6 267.7Q546.0 267.0 546.8 265.6Q547.7 264.3 547.7 262.6L547.7 262.6Q547.7 260.9 546.8 259.6Q546.0 258.3 544.6 257.6Q543.2 256.8 541.3 256.8L541.3 256.8Q539.5 256.8 538.1 257.6Q536.6 258.3 535.8 259.6Q535.0 260.9 535.0 262.6L535.0 262.6Q535.0 264.3 535.8 265.6Q536.7 267.0 538.1 267.7Q539.5 268.5 541.3 268.5Z "/></clipPath><defs><pattern id="satori_pattern_id-2_0" x="0" y="0" width="1" height="1" patternUnits="objectBoundingBox"><linearGradient id="satori_biid-2_0" x1="0" y1="0" x2="1" y2="0" spreadMethod="pad"><stop offset="0%" stop-color="rgb(255, 77, 77)"/><stop offset="100%" stop-color="rgb(249, 203, 40)"/></linearGradient><rect x="0" y="0" width="320" height="73" fill="url(#satori_biid-2_0)"/></pattern></defs><mask id="satori_om-id-2"><rect x="240" y="236" width="320" height="73" fill="#fff"/></mask><rect x="240" y="236" width="320" height="73" fill="url(#satori_pattern_id-2_0)" clip-path="url(#satori_bct-id-2)"/></svg>